<?xml version="1.0" standalone="no"?>
<!DOCTYPE svg PUBLIC "-//W3C//DTD SVG 20010904//EN"
 "http://www.w3.org/TR/2001/REC-SVG-20010904/DTD/svg10.dtd">
<svg version="1.0" xmlns="http://www.w3.org/2000/svg"
 width="256.000000pt" height="256.000000pt" viewBox="0 0 256.000000 256.000000"
 preserveAspectRatio="xMidYMid meet">
<metadata>
Created by potrace 1.11, written by Peter Selinger 2001-2013
</metadata>
<g transform="translate(0.000000,256.000000) scale(0.100000,-0.100000)"
fill="#000000" stroke="none">
<path d="M1159 2556 c-2 -2 -29 -7 -60 -10 -31 -4 -71 -11 -88 -16 -17 -5 -35
-9 -39 -10 -14 -1 -87 -21 -102 -27 -8 -3 -19 -7 -25 -9 -5 -1 -32 -12 -60
-25 -63 -28 -56 -25 -82 -34 -13 -4 -23 -11 -23 -16 0 -5 -6 -9 -12 -9 -11 0
-63 -32 -156 -95 -30 -20 -87 -72 -143 -128 -137 -137 -252 -330 -308 -514
-47 -154 -52 -190 -56 -358 -5 -226 36 -411 136 -608 35 -69 52 -100 59 -107
3 -3 22 -30 43 -61 37 -55 150 -176 217 -234 53 -46 197 -137 272 -173 77 -37
232 -89 286 -97 21 -3 55 -9 77 -12 55 -10 330 -9 385 0 25 5 60 12 78 17 17
4 32 6 32 3 0 -3 7 0 15 7 8 7 15 10 15 6 0 -15 249 88 303 126 15 11 27 16
27 13 0 -4 7 0 15 8 8 8 31 26 52 38 56 35 79 55 178 156 90 92 155 173 155
193 0 5 4 10 9 10 22 0 151 297 165 382 3 15 7 32 10 36 12 20 20 135 21 277
0 187 -9 242 -60 400 -25 75 -118 274 -134 285 -4 3 -22 29 -41 58 -18 28 -37
52 -42 52 -4 0 -8 4 -8 10 0 9 -106 118 -171 175 -50 44 -205 145 -223 145 -9
0 -16 3 -16 8 0 15 -187 86 -285 108 -91 20 -153 27 -271 30 -78 2 -143 2
-145 0z"/>
</g>
</svg>
